<svg width="584" height="258" viewBox="0 0 584 258" fill="none" xmlns="http://www.w3.org/2000/svg">
<g clip-path="url(#clip0_1569_2739)">
<path d="M81.5712 93.6597C81.5712 104.481 76.2783 113.185 66.3981 117.184C61.9284 118.948 54.7535 119.772 47.8138 119.772H33.8169V152H11.9392V66.9596H46.8729C56.165 66.9596 64.2809 67.5477 70.7501 71.8997C78.0426 76.8398 81.5712 84.6028 81.5712 93.6597ZM59.6936 93.0716C59.6936 83.309 52.2835 81.1918 43.3442 81.1918H33.8169V105.539H42.4032C51.5777 105.539 59.6936 103.187 59.6936 93.0716ZM189.008 109.421C189.008 122.006 185.832 132.475 179.363 140.238C172.188 148.824 161.249 153.764 146.781 153.764C119.258 153.764 105.379 136.003 105.379 109.539C105.379 83.309 119.611 64.96 147.487 64.96C175.363 64.96 189.008 83.0737 189.008 109.421ZM166.424 109.186C166.424 101.187 164.895 92.4835 161.014 86.8376C157.955 82.2504 153.603 79.5451 147.134 79.5451C139.606 79.5451 134.902 83.4266 131.843 89.5429C129.138 95.0711 127.962 102.599 127.962 109.303C127.962 124.712 131.961 139.179 147.017 139.179C162.072 139.179 166.424 124.712 166.424 109.186ZM294.992 126.006C293.11 145.766 277.584 153.647 258.294 153.647C230.3 153.647 217.009 136.827 217.009 110.244C217.009 83.5442 231.123 65.4305 258.882 65.4305C271.468 65.4305 282.877 69.0768 289.346 77.6631C292.404 81.6623 294.051 86.6024 294.404 93.1892H271.821C270.997 84.4852 266.292 80.1332 258.765 80.1332C244.415 80.1332 239.945 95.7769 239.945 110.715C239.945 125.182 244.532 139.062 258.412 139.062C266.057 139.062 271.468 134.71 272.409 126.006H294.992ZM405.218 152H381.576L374.989 132.945H340.761L334.175 152H312.885L345.584 66.9596H371.931L405.218 152ZM370.402 119.419L357.817 81.3094L344.996 119.419H370.402ZM499.269 152H476.568C475.509 148.589 474.686 144.355 473.862 136.944C472.216 122.124 471.863 117.066 459.983 117.066H447.986V152H425.99V66.9596H462.571C471.157 66.9596 477.509 67.1948 483.743 69.9001C491.623 73.4288 496.681 79.5451 496.681 88.4843C496.681 95.5416 493.74 101.07 488.918 104.598C485.742 106.951 482.096 108.362 477.156 109.421C490.917 109.774 493.152 116.361 495.152 133.063C495.975 140.12 496.681 146.119 499.269 152ZM475.509 92.013C475.509 82.368 466.923 81.0742 458.101 81.0742H447.986V103.422H457.278C466.217 103.422 475.509 102.246 475.509 92.013ZM556.715 152H534.602V66.9596H556.715V152Z" fill="white"/>
<path d="M16.8497 48H11.9719V29.2411H16.8497V48ZM38.277 38.6076C38.277 41.3838 37.5765 43.693 36.1495 45.4054C34.5668 47.2995 32.1538 48.3892 28.9624 48.3892C22.8911 48.3892 19.8295 44.4714 19.8295 38.6335C19.8295 32.8476 22.9689 28.8 29.1181 28.8C35.2673 28.8 38.277 32.7957 38.277 38.6076ZM33.2954 38.5557C33.2954 36.7914 32.9581 34.8714 32.1019 33.6259C31.4273 32.6141 30.4673 32.0173 29.0403 32.0173C27.3797 32.0173 26.3419 32.8735 25.6673 34.2227C25.0705 35.4422 24.8111 37.1027 24.8111 38.5816C24.8111 41.9805 25.6932 45.1719 29.0143 45.1719C32.3354 45.1719 33.2954 41.9805 33.2954 38.5557ZM58.6462 48H51.9003L45.4138 33.2627V48H41.2624V29.2411H48.0084L54.4949 43.9524V29.2411H58.6462V48ZM86.497 42.3178C86.497 46.9103 81.9045 48.3632 78.0905 48.3632C73.498 48.3632 70.151 46.7027 70.0991 42.24H74.951C75.0029 44.2638 76.0667 45.3276 78.1943 45.3276C79.8029 45.3276 81.4375 44.5232 81.4375 42.8108C81.4375 41.5135 80.2699 41.0205 78.7391 40.5795L75.7034 39.6973C71.9413 38.6076 70.4883 37.0768 70.4883 34.6378C70.4883 30.5643 74.3283 28.8778 78.5575 28.8778C82.8386 28.8778 85.978 30.3827 86.004 34.4562H81.1521C81.0224 32.6659 80.0883 31.7838 78.2721 31.7838C76.8191 31.7838 75.4699 32.4843 75.4699 33.9632C75.4699 34.8714 76.378 35.52 78.7391 36.2465L81.1002 36.973C84.1099 37.907 86.497 38.9449 86.497 42.3178ZM106.501 40.2422C106.501 42.8368 105.931 44.653 104.737 46.0022C103.31 47.6108 101.027 48.4151 97.9393 48.4151C94.9555 48.4151 92.1793 47.6886 90.7264 45.2757C89.7923 43.7189 89.6366 42.1362 89.6366 40.2422V29.2411H94.5145V40.6054C94.5145 43.3297 95.2409 45.1978 98.1209 45.1978C101.001 45.1978 101.727 43.2 101.727 40.5276V29.2411H106.501V40.2422ZM124.427 35.1308C124.427 37.5178 123.26 39.4378 121.08 40.32C120.095 40.7092 118.512 40.8908 116.981 40.8908H113.893V48H109.067V29.2411H116.773C118.823 29.2411 120.613 29.3708 122.04 30.3308C123.649 31.4205 124.427 33.133 124.427 35.1308ZM119.602 35.0011C119.602 32.8476 117.967 32.3805 115.995 32.3805H113.893V37.7514H115.787C117.811 37.7514 119.602 37.2324 119.602 35.0011ZM141.588 35.1308C141.588 37.5178 140.421 39.4378 138.241 40.32C137.255 40.7092 135.673 40.8908 134.142 40.8908H131.054V48H126.228V29.2411H133.934C135.984 29.2411 137.774 29.3708 139.201 30.3308C140.81 31.4205 141.588 33.133 141.588 35.1308ZM136.762 35.0011C136.762 32.8476 135.128 32.3805 133.156 32.3805H131.054V37.7514H132.948C134.972 37.7514 136.762 37.2324 136.762 35.0011ZM156.803 48H143.389V29.2411H148.267V44.7827H156.803V48ZM171.084 29.2411L164.052 40.9946V48H159.175V40.9427L152.221 29.2411H157.644L161.821 37.5697L166.128 29.2411H171.084ZM197.5 38.5816C197.5 43.0184 195.788 45.587 192.908 46.9103C191.169 47.7146 189.094 48 186.551 48H179.961V29.2411H186.966C190.132 29.2411 192.57 29.76 194.413 31.1611C196.359 32.64 197.5 35.0789 197.5 38.5816ZM192.467 38.5816C192.467 35.8832 191.74 34.1708 190.313 33.2368C189.405 32.64 188.237 32.3805 186.681 32.3805H184.813V44.8605H186.603C190.676 44.8605 192.467 43.0703 192.467 38.5816ZM215.611 48H210.603C210.37 47.2476 210.188 46.3135 210.007 44.6789C209.643 41.4097 209.565 40.2941 206.945 40.2941H204.298V48H199.447V29.2411H207.516C209.41 29.2411 210.811 29.293 212.186 29.8897C213.924 30.6681 215.04 32.0173 215.04 33.9892C215.04 35.5459 214.391 36.7654 213.328 37.5438C212.627 38.0627 211.823 38.3741 210.733 38.6076C213.769 38.6854 214.262 40.1384 214.703 43.8227C214.884 45.3795 215.04 46.7027 215.611 48ZM210.37 34.7676C210.37 32.64 208.476 32.3546 206.53 32.3546H204.298V37.2843H206.348C208.32 37.2843 210.37 37.0249 210.37 34.7676ZM222.315 48H217.437V29.2411H222.315V48ZM242.601 48H235.855L229.369 33.2627V48H225.217V29.2411H231.963L238.45 43.9524V29.2411H242.601V48ZM263.416 48H257.423L250.418 37.7254L256.748 29.2411H262.456L255.529 37.5438L263.416 48ZM250.392 48H245.514V29.2411H250.392V48Z" fill="white"/>
<path d="M81.8065 221.241C81.8065 242.06 60.9875 248.647 43.6971 248.647C22.8781 248.647 7.70486 241.119 7.46962 220.888H29.4649C29.7001 230.062 34.5226 234.885 44.1676 234.885C51.4601 234.885 58.8703 231.239 58.8703 223.476C58.8703 217.595 53.5773 215.36 46.6376 213.36L32.8759 209.361C15.8208 204.421 9.23395 197.481 9.23395 186.425C9.23395 167.958 26.6419 160.313 45.8143 160.313C65.2218 160.313 79.4541 167.135 79.5717 185.602H57.5764C56.9883 177.486 52.7539 173.486 44.5204 173.486C37.9336 173.486 31.8173 176.662 31.8173 183.367C31.8173 187.483 35.9341 190.424 46.6376 193.717L57.3412 197.011C70.9853 201.245 81.8065 205.95 81.8065 221.241ZM234.127 161.96L212.015 247H186.138L169.083 180.544L151.322 247H125.21L102.979 161.96H125.445L139.912 226.887L156.85 161.96H182.727L199.429 226.887L213.308 161.96H234.127ZM321.537 247H259.785V161.96H320.243V176.545H281.31V196.658H318.243V211.008H281.31V232.533H321.537V247ZM433.365 247H409.723L403.136 227.945H368.908L362.321 247H341.032L373.73 161.96H400.078L433.365 247ZM398.549 214.419L385.963 176.309L373.142 214.419H398.549ZM512.454 176.78H486.225V247H464.112V176.78H437.882V161.96H512.454V176.78Z" fill="white"/>
</g>
<defs>
<clipPath id="clip0_1569_2739">
<rect width="584" height="258" fill="white"/>
</clipPath>
</defs>
</svg>
