<svg width="584" height="370" viewBox="0 0 584 370" fill="none" xmlns="http://www.w3.org/2000/svg">
<path d="M583.501 256.215V357.715C457.692 378.785 361.34 372.419 249 331.199C103.679 272.282 69.8272 264.269 0 267.2C92.8428 241.663 154.35 238.751 273.5 265.215C378.293 289.142 446.292 286.776 583.501 256.215Z" fill="white"/>
<path d="M81.5712 64.8589C81.5712 75.6801 76.2783 84.3841 66.3981 88.3832C61.9284 90.1475 54.7535 90.9709 47.8138 90.9709H33.8169V123.199H11.9392V38.1588H46.8729C56.165 38.1588 64.2809 38.7469 70.7501 43.0989C78.0426 48.039 81.5712 55.802 81.5712 64.8589ZM59.6936 64.2708C59.6936 54.5082 52.2835 52.391 43.3442 52.391H33.8169V76.7387H42.4032C51.5777 76.7387 59.6936 74.3862 59.6936 64.2708ZM189.008 80.6202C189.008 93.2057 185.832 103.674 179.363 111.437C172.188 120.023 161.249 124.964 146.781 124.964C119.258 124.964 105.379 107.203 105.379 80.7378C105.379 54.5082 119.611 36.1592 147.487 36.1592C175.363 36.1592 189.008 54.273 189.008 80.6202ZM166.424 80.3849C166.424 72.3867 164.895 63.6827 161.014 58.0368C157.955 53.4496 153.603 50.7443 147.134 50.7443C139.606 50.7443 134.902 54.6258 131.843 60.7421C129.138 66.2704 127.962 73.7981 127.962 80.5026C127.962 95.911 131.961 110.378 147.017 110.378C162.072 110.378 166.424 95.911 166.424 80.3849ZM294.992 97.2048C293.11 116.965 277.584 124.846 258.294 124.846C230.3 124.846 217.009 108.026 217.009 81.4435C217.009 54.7434 231.123 36.6297 258.882 36.6297C271.468 36.6297 282.877 40.276 289.346 48.8624C292.404 52.8615 294.051 57.8016 294.404 64.3884H271.821C270.997 55.6844 266.292 51.3324 258.765 51.3324C244.415 51.3324 239.945 66.9761 239.945 81.914C239.945 96.3815 244.532 110.261 258.412 110.261C266.057 110.261 271.468 105.909 272.409 97.2048H294.992ZM405.218 123.199H381.576L374.989 104.145H340.761L334.175 123.199H312.885L345.584 38.1588H371.931L405.218 123.199ZM370.402 90.618L357.817 52.5086L344.996 90.618H370.402ZM499.269 123.199H476.568C475.509 119.788 474.686 115.554 473.862 108.144C472.216 93.3233 471.863 88.2656 459.983 88.2656H447.986V123.199H425.99V38.1588H462.571C471.157 38.1588 477.509 38.394 483.743 41.0993C491.623 44.628 496.681 50.7443 496.681 59.6835C496.681 66.7408 493.74 72.2691 488.918 75.7977C485.742 78.1501 482.096 79.5616 477.156 80.6202C490.917 80.9731 493.152 87.5599 495.152 104.262C495.975 111.319 496.681 117.318 499.269 123.199ZM475.509 63.2122C475.509 53.5672 466.923 52.2734 458.101 52.2734H447.986V74.6215H457.278C466.217 74.6215 475.509 73.4453 475.509 63.2122ZM556.715 123.199H534.602V38.1588H556.715V123.199Z" fill="white"/>
<path d="M16.8497 19.1992H11.9719V0.440299H16.8497V19.1992ZM38.277 9.80679C38.277 12.583 37.5765 14.8922 36.1495 16.6046C34.5668 18.4987 32.1538 19.5884 28.9624 19.5884C22.8911 19.5884 19.8295 15.6706 19.8295 9.83273C19.8295 4.04679 22.9689 -0.000781345 29.1181 -0.000781345C35.2673 -0.000781345 38.277 3.99489 38.277 9.80679ZM33.2954 9.75489C33.2954 7.99057 32.9581 6.07057 32.1019 4.82516C31.4273 3.81327 30.4673 3.21651 29.0403 3.21651C27.3797 3.21651 26.3419 4.07273 25.6673 5.42192C25.0705 6.64138 24.8111 8.30192 24.8111 9.78084C24.8111 13.1798 25.6932 16.3711 29.0143 16.3711C32.3354 16.3711 33.2954 13.1798 33.2954 9.75489ZM58.6462 19.1992H51.9003L45.4138 4.46192V19.1992H41.2624V0.440299H48.0084L54.4949 15.1517V0.440299H58.6462V19.1992ZM86.497 13.5171C86.497 18.1095 81.9045 19.5625 78.0905 19.5625C73.498 19.5625 70.151 17.9019 70.0991 13.4392H74.951C75.0029 15.463 76.0667 16.5268 78.1943 16.5268C79.8029 16.5268 81.4375 15.7225 81.4375 14.01C81.4375 12.7127 80.2699 12.2198 78.7391 11.7787L75.7034 10.8965C71.9413 9.80679 70.4883 8.27597 70.4883 5.83706C70.4883 1.76354 74.3283 0.0770555 78.5575 0.0770555C82.8386 0.0770555 85.978 1.58192 86.004 5.65543H81.1521C81.0224 3.86516 80.0883 2.983 78.2721 2.983C76.8191 2.983 75.4699 3.68354 75.4699 5.16246C75.4699 6.07057 76.378 6.71922 78.7391 7.44571L81.1002 8.17219C84.1099 9.10625 86.497 10.1441 86.497 13.5171ZM106.501 11.4414C106.501 14.036 105.931 15.8522 104.737 17.2014C103.31 18.81 101.027 19.6144 97.9393 19.6144C94.9555 19.6144 92.1793 18.8879 90.7264 16.4749C89.7923 14.9181 89.6366 13.3354 89.6366 11.4414V0.440299H94.5145V11.8046C94.5145 14.5289 95.2409 16.3971 98.1209 16.3971C101.001 16.3971 101.727 14.3992 101.727 11.7268V0.440299H106.501V11.4414ZM124.427 6.33003C124.427 8.71706 123.26 10.6371 121.08 11.5192C120.095 11.9084 118.512 12.09 116.981 12.09H113.893V19.1992H109.067V0.440299H116.773C118.823 0.440299 120.613 0.570028 122.04 1.53003C123.649 2.61976 124.427 4.33219 124.427 6.33003ZM119.602 6.2003C119.602 4.04679 117.967 3.57976 115.995 3.57976H113.893V8.95057H115.787C117.811 8.95057 119.602 8.43165 119.602 6.2003ZM141.588 6.33003C141.588 8.71706 140.421 10.6371 138.241 11.5192C137.255 11.9084 135.673 12.09 134.142 12.09H131.054V19.1992H126.228V0.440299H133.934C135.984 0.440299 137.774 0.570028 139.201 1.53003C140.81 2.61976 141.588 4.33219 141.588 6.33003ZM136.762 6.2003C136.762 4.04679 135.128 3.57976 133.156 3.57976H131.054V8.95057H132.948C134.972 8.95057 136.762 8.43165 136.762 6.2003ZM156.803 19.1992H143.389V0.440299H148.267V15.9819H156.803V19.1992ZM171.084 0.440299L164.052 12.1938V19.1992H159.175V12.1419L152.221 0.440299H157.644L161.821 8.76895L166.128 0.440299H171.084ZM197.5 9.78084C197.5 14.2176 195.788 16.7862 192.908 18.1095C191.169 18.9138 189.094 19.1992 186.551 19.1992H179.961V0.440299H186.966C190.132 0.440299 192.57 0.959219 194.413 2.3603C196.359 3.83922 197.5 6.27814 197.5 9.78084ZM192.467 9.78084C192.467 7.08246 191.74 5.37003 190.313 4.43598C189.405 3.83922 188.237 3.57976 186.681 3.57976H184.813V16.0598H186.603C190.676 16.0598 192.467 14.2695 192.467 9.78084ZM215.611 19.1992H210.603C210.37 18.4468 210.188 17.5127 210.007 15.8781C209.643 12.6089 209.565 11.4933 206.945 11.4933H204.298V19.1992H199.447V0.440299H207.516C209.41 0.440299 210.811 0.492191 212.186 1.08895C213.924 1.86733 215.04 3.21651 215.04 5.18841C215.04 6.74516 214.391 7.96462 213.328 8.743C212.627 9.26192 211.823 9.57327 210.733 9.80679C213.769 9.88462 214.262 11.3376 214.703 15.0219C214.884 16.5787 215.04 17.9019 215.611 19.1992ZM210.37 5.96679C210.37 3.83922 208.476 3.55381 206.53 3.55381H204.298V8.48354H206.348C208.32 8.48354 210.37 8.22408 210.37 5.96679ZM222.315 19.1992H217.437V0.440299H222.315V19.1992ZM242.601 19.1992H235.855L229.369 4.46192V19.1992H225.217V0.440299H231.963L238.45 15.1517V0.440299H242.601V19.1992ZM263.416 19.1992H257.423L250.418 8.92462L256.748 0.440299H262.456L255.529 8.743L263.416 19.1992ZM250.392 19.1992H245.514V0.440299H250.392V19.1992Z" fill="white"/>
<path d="M81.8065 192.44C81.8065 213.259 60.9875 219.846 43.6971 219.846C22.8781 219.846 7.70486 212.318 7.46962 192.087H29.4649C29.7001 201.262 34.5226 206.084 44.1676 206.084C51.4601 206.084 58.8703 202.438 58.8703 194.675C58.8703 188.794 53.5773 186.559 46.6376 184.559L32.8759 180.56C15.8208 175.62 9.23395 168.681 9.23395 157.624C9.23395 139.157 26.6419 131.512 45.8143 131.512C65.2218 131.512 79.4541 138.334 79.5717 156.801H57.5764C56.9883 148.685 52.7539 144.686 44.5204 144.686C37.9336 144.686 31.8173 147.861 31.8173 154.566C31.8173 158.683 35.9341 161.623 46.6376 164.917L57.3412 168.21C70.9853 172.444 81.8065 177.149 81.8065 192.44ZM234.127 133.159L212.015 218.199H186.138L169.083 151.743L151.322 218.199H125.21L102.979 133.159H125.445L139.912 198.086L156.85 133.159H182.727L199.429 198.086L213.308 133.159H234.127ZM321.537 218.199H259.785V133.159H320.243V147.744H281.31V167.857H318.243V182.207H281.31V203.732H321.537V218.199ZM433.365 218.199H409.723L403.136 199.145H368.908L362.321 218.199H341.032L373.73 133.159H400.078L433.365 218.199ZM398.549 185.618L385.963 147.509L373.142 185.618H398.549ZM512.454 147.979H486.225V218.199H464.112V147.979H437.882V133.159H512.454V147.979Z" fill="white"/>
</svg>
